<mxfile host="app.diagrams.net" modified="2023-03-31T23:38:56.680Z" agent="Mozilla/5.0 (Windows NT 10.0; Win64; x64) AppleWebKit/537.36 (KHTML, like Gecko) Chrome/110.0.0.0 Safari/537.36" version="21.1.2" etag="7Sxw3kkvuE0FS2-qLspH" type="github">
  <diagram name="Page-1" id="qYL5r-2C1HyCGJvv7zMG">
    <mxGraphModel>
      <root>
        <mxCell id="0" />
        <mxCell id="1" parent="0" />
      </root>
    </mxGraphModel>
  </diagram>
</mxfile>
